<svg width="12" height="13" viewBox="0 0 12 13" fill="none" xmlns="http://www.w3.org/2000/svg">
<path d="M8.78331 1.0117C6.78227 0.629563 4.70425 0.629563 2.70321 1.0117C1.81813 1.20277 0.70216 2.27276 0.509751 3.11347C0.163416 4.75667 0.163416 6.43808 0.509751 8.08128C0.740641 8.92199 1.85661 9.99198 2.70321 10.1831C2.74169 10.1831 2.78017 10.2213 2.78017 10.2595V12.667C2.78017 12.7816 2.9341 12.858 3.01106 12.7434L4.16551 11.5588C4.16551 11.5588 5.08907 10.6034 5.243 10.4505C5.243 10.4505 5.28148 10.4123 5.31996 10.4123C6.47441 10.4506 7.66734 10.3359 8.82179 10.1448C9.70687 9.95377 10.8228 8.88378 11.0152 8.04307C11.3616 6.39987 11.3616 4.71846 11.0152 3.07526C10.7844 2.27276 9.66839 1.20277 8.78331 1.0117ZM8.82179 8.19593C8.62939 8.57807 8.3985 8.88378 8.01368 9.07485C7.89823 9.11306 7.78279 9.15127 7.66734 9.18949C7.51342 9.15127 7.39797 9.11306 7.28253 9.07485C6.05111 8.57807 4.89666 7.89021 3.9731 6.89665C3.47284 6.32344 3.04954 5.6738 2.70321 4.98595C2.54928 4.64203 2.39535 4.33632 2.27991 3.99239C2.16446 3.68668 2.35687 3.38097 2.54928 3.15168C2.74169 2.9224 2.97258 2.76954 3.24195 2.6549C3.43436 2.54026 3.62677 2.61669 3.78069 2.76954C4.08855 3.15168 4.3964 3.53382 4.62729 3.95418C4.78122 4.22167 4.74273 4.52739 4.47336 4.71846C4.3964 4.75667 4.35792 4.79488 4.28095 4.87131C4.24247 4.90953 4.16551 4.94774 4.12703 5.02417C4.05006 5.13881 4.05006 5.25345 4.08855 5.36809C4.3964 6.24701 4.97362 6.93486 5.8587 7.317C6.01263 7.39343 6.12808 7.43165 6.32049 7.43165C6.58986 7.39343 6.7053 7.08772 6.89771 6.93486C7.09012 6.78201 7.32101 6.78201 7.5519 6.89665C7.74431 7.01129 7.93671 7.16415 8.1676 7.317C8.36001 7.46986 8.55242 7.5845 8.74483 7.73736C8.86027 7.81379 8.89876 8.00486 8.82179 8.19593ZM7.20556 5.32988C7.1286 5.32988 7.16708 5.32988 7.20556 5.32988C7.05164 5.32988 7.01315 5.25345 6.97467 5.13881C6.97467 5.06238 6.97467 4.94774 6.93619 4.87131C6.89771 4.71846 6.82075 4.5656 6.66682 4.45096C6.58986 4.41274 6.51289 4.37453 6.43593 4.33632C6.32048 4.2981 6.24352 4.2981 6.12808 4.2981C6.01263 4.25989 5.97415 4.18346 5.97415 4.06882C5.97415 3.99239 6.08959 3.91596 6.16656 3.91596C6.78227 3.95418 7.24404 4.2981 7.32101 5.02417C7.32101 5.06238 7.32101 5.13881 7.32101 5.17702C7.32101 5.25345 7.28253 5.32988 7.20556 5.32988ZM6.82074 3.64847C6.62834 3.57204 6.43593 3.49561 6.20504 3.4574C6.12808 3.4574 6.01263 3.41918 5.93567 3.41918C5.82022 3.41918 5.74326 3.34275 5.78174 3.22811C5.78174 3.11347 5.8587 3.03704 5.97415 3.07526C6.35897 3.11347 6.7053 3.1899 7.05164 3.34275C7.74431 3.68668 8.12912 4.25989 8.24457 5.02417C8.24457 5.06238 8.24457 5.1006 8.24457 5.13881C8.24457 5.21524 8.24457 5.29166 8.24457 5.40631C8.24457 5.44452 8.24457 5.48274 8.24457 5.52095C8.20609 5.67381 7.93672 5.71202 7.89823 5.52095C7.89823 5.48274 7.85975 5.40631 7.85975 5.36809C7.85975 5.02417 7.78279 4.68024 7.62886 4.37453C7.39797 4.0306 7.1286 3.80132 6.82074 3.64847ZM8.89876 5.9413C8.78331 5.9413 8.70635 5.82666 8.70635 5.71202C8.70635 5.48274 8.66787 5.25345 8.62939 5.02417C8.47546 3.80132 7.47494 2.80776 6.282 2.61669C6.0896 2.57847 5.89719 2.57847 5.74326 2.54026C5.62782 2.54026 5.47389 2.54026 5.43541 2.3874C5.39692 2.27276 5.51237 2.15812 5.62781 2.15812C5.6663 2.15812 5.70478 2.15812 5.70478 2.15812C5.78174 2.15812 7.28253 2.19633 5.70478 2.15812C7.32101 2.19633 8.66787 3.26633 8.93724 4.87131C8.97572 5.13881 9.0142 5.40631 9.0142 5.71202C9.09117 5.82666 9.0142 5.9413 8.89876 5.9413Z" fill="white"/>
</svg>
