<svg width="13" height="9" viewBox="0 0 13 9" fill="none" xmlns="http://www.w3.org/2000/svg">
<path d="M7.01543 8.17495C3.06924 8.17495 0.818395 5.41594 0.724609 0.824951H2.70131C2.76624 4.19462 4.22352 5.62195 5.3778 5.91624V0.824951H7.23907V3.73111C8.37892 3.60603 9.57648 2.28171 9.98048 0.824951H11.8418C11.6895 1.58047 11.3861 2.29582 10.9504 2.92626C10.5146 3.55671 9.95607 4.08868 9.30956 4.48891C10.0312 4.85462 10.6686 5.37224 11.1797 6.00762C11.6908 6.643 12.064 7.38169 12.2746 8.17495H10.2258C10.0367 7.48595 9.65244 6.86917 9.12114 6.40193C8.58984 5.93469 7.93513 5.63777 7.23907 5.54837V8.17495H7.01543Z" fill="white"/>
</svg>
