<svg width="13" height="12" viewBox="0 0 13 12" fill="none" xmlns="http://www.w3.org/2000/svg">
<path d="M10.3598 2.33291C9.27317 1.29932 7.82439 0.725098 6.29512 0.725098C3.11585 0.725098 0.540243 3.1751 0.540243 6.19932C0.540243 7.15635 0.821951 8.11338 1.30488 8.91728L0.5 11.7501L3.55854 10.9845C4.40366 11.4056 5.32927 11.6353 6.29512 11.6353C9.47439 11.6353 12.05 9.18525 12.05 6.16104C12.0098 4.74463 11.4463 3.3665 10.3598 2.33291ZM9.07195 8.15166C8.95122 8.45791 8.3878 8.76416 8.1061 8.80244C7.86463 8.84072 7.54268 8.84072 7.22073 8.76416C7.01951 8.6876 6.73781 8.61104 6.41585 8.45791C4.96707 7.88369 4.04146 6.50557 3.96098 6.39072C3.88049 6.31416 3.35732 5.66338 3.35732 4.97432C3.35732 4.28525 3.71951 3.979 3.84024 3.82588C3.96098 3.67275 4.12195 3.67275 4.24268 3.67275C4.32317 3.67275 4.4439 3.67275 4.52439 3.67275C4.60488 3.67275 4.72561 3.63447 4.84634 3.90244C4.96707 4.17041 5.24878 4.85947 5.28902 4.89775C5.32927 4.97432 5.32927 5.05088 5.28902 5.12744C5.24878 5.204 5.20854 5.28057 5.12805 5.35713C5.04756 5.43369 4.96707 5.54853 4.92683 5.58682C4.84634 5.66338 4.76585 5.73994 4.84634 5.85478C4.92683 6.00791 5.20854 6.429 5.65122 6.81182C6.21463 7.27119 6.65732 7.42432 6.81829 7.50088C6.97927 7.57744 7.05975 7.53916 7.14024 7.4626C7.22073 7.38603 7.50244 7.07979 7.58293 6.92666C7.66342 6.77354 7.78415 6.81182 7.90488 6.8501C8.02561 6.88838 8.75 7.23291 8.87073 7.30947C9.03171 7.38604 9.11219 7.42432 9.15244 7.4626C9.19268 7.57744 9.19268 7.84541 9.07195 8.15166Z" fill="white"/>
</svg>
